<svg xmlns="http://www.w3.org/2000/svg" viewBox="0 0 180 224" fill="none"><path fill="#F5F5F5" fill-rule="evenodd" d="M175 5H5v214h170V5ZM0 0v224h180V0H0Z" clip-rule="evenodd"/><path fill="#E8A920" d="M151.829 189.93c.24 0 .429.069.567.207a.685.685 0 0 1 .216.531V192h-8.928v-.738a1.252 1.252 0 0 1 .396-.918l3.951-3.96c.33-.336.624-.657.882-.963.264-.306.483-.609.657-.909.174-.3.306-.603.396-.909.096-.312.144-.639.144-.981 0-.312-.045-.585-.135-.819a1.607 1.607 0 0 0-.387-.603 1.493 1.493 0 0 0-.594-.36 2.228 2.228 0 0 0-.774-.126c-.264 0-.51.039-.738.117a1.88 1.88 0 0 0-.594.315 1.922 1.922 0 0 0-.441.468c-.12.18-.21.378-.27.594-.102.276-.234.459-.396.549-.162.09-.396.111-.702.063l-1.17-.207c.09-.624.264-1.17.522-1.638.258-.474.579-.867.963-1.179.39-.318.834-.555 1.332-.711a5.264 5.264 0 0 1 1.62-.243c.6 0 1.149.09 1.647.27.498.174.924.423 1.278.747s.63.714.828 1.17c.198.456.297.963.297 1.521 0 .48-.072.924-.216 1.332a5.262 5.262 0 0 1-.567 1.17 7.61 7.61 0 0 1-.828 1.08c-.318.348-.651.702-.999 1.062l-2.934 2.997c.282-.084.561-.147.837-.189.282-.048.549-.072.801-.072h3.339Zm11.602-4.437c0 1.134-.123 2.121-.369 2.961-.24.834-.576 1.524-1.008 2.07a4.071 4.071 0 0 1-1.521 1.224 4.521 4.521 0 0 1-1.89.396 4.521 4.521 0 0 1-1.89-.396 4.112 4.112 0 0 1-1.503-1.224c-.426-.546-.759-1.236-.999-2.07-.24-.84-.36-1.827-.36-2.961 0-1.14.12-2.127.36-2.961.24-.834.573-1.524.999-2.07a4.027 4.027 0 0 1 1.503-1.215 4.436 4.436 0 0 1 1.89-.405c.678 0 1.308.135 1.89.405a3.989 3.989 0 0 1 1.521 1.215c.432.546.768 1.236 1.008 2.07.246.834.369 1.821.369 2.961Zm-2.295 0c0-.942-.069-1.722-.207-2.34-.138-.618-.324-1.11-.558-1.476-.228-.366-.492-.621-.792-.765a2.05 2.05 0 0 0-1.863 0c-.294.144-.555.399-.783.765-.228.366-.411.858-.549 1.476-.132.618-.198 1.398-.198 2.34s.066 1.722.198 2.34c.138.618.321 1.11.549 1.476.228.366.489.624.783.774a2.12 2.12 0 0 0 1.863 0c.3-.15.564-.408.792-.774.234-.366.42-.858.558-1.476.138-.618.207-1.398.207-2.34Zm-9.307 19.437c.24 0 .429.069.567.207a.685.685 0 0 1 .216.531V207h-8.928v-.738a1.252 1.252 0 0 1 .396-.918l3.951-3.96c.33-.336.624-.657.882-.963.264-.306.483-.609.657-.909.174-.3.306-.603.396-.909.096-.312.144-.639.144-.981 0-.312-.045-.585-.135-.819a1.607 1.607 0 0 0-.387-.603 1.493 1.493 0 0 0-.594-.36 2.228 2.228 0 0 0-.774-.126c-.264 0-.51.039-.738.117a1.88 1.88 0 0 0-.594.315 1.922 1.922 0 0 0-.441.468c-.12.18-.21.378-.27.594-.102.276-.234.459-.396.549-.162.09-.396.111-.702.063l-1.17-.207c.09-.624.264-1.17.522-1.638.258-.474.579-.867.963-1.179.39-.318.834-.555 1.332-.711a5.264 5.264 0 0 1 1.62-.243c.6 0 1.149.09 1.647.27.498.174.924.423 1.278.747s.63.714.828 1.17c.198.456.297.963.297 1.521 0 .48-.072.924-.216 1.332a5.262 5.262 0 0 1-.567 1.17 7.61 7.61 0 0 1-.828 1.08c-.318.348-.651.702-.999 1.062l-2.934 2.997c.282-.084.561-.147.837-.189.282-.048.549-.072.801-.072h3.339Zm2.584-7.317c.09-.624.264-1.17.522-1.638.258-.474.579-.867.963-1.179.39-.318.834-.555 1.332-.711a5.264 5.264 0 0 1 1.62-.243c.6 0 1.14.087 1.62.261.486.168.9.405 1.242.711.342.3.603.654.783 1.062.186.408.279.849.279 1.323 0 .414-.048.78-.144 1.098a2.365 2.365 0 0 1-1.044 1.413 4.033 4.033 0 0 1-.873.405c.78.246 1.362.621 1.746 1.125.384.504.576 1.137.576 1.899 0 .648-.12 1.221-.36 1.719a3.74 3.74 0 0 1-.972 1.26 4.272 4.272 0 0 1-1.422.765 5.457 5.457 0 0 1-1.701.261c-.654 0-1.224-.075-1.71-.225a3.713 3.713 0 0 1-1.269-.666 4.022 4.022 0 0 1-.918-1.08 7.288 7.288 0 0 1-.648-1.476l.981-.405c.258-.108.498-.135.72-.081a.69.69 0 0 1 .495.36c.108.21.225.417.351.621.132.204.288.387.468.549.18.156.39.285.63.387.246.096.537.144.873.144.378 0 .708-.06.99-.18.282-.126.516-.288.702-.486.192-.198.333-.417.423-.657.096-.246.144-.492.144-.738 0-.312-.033-.594-.099-.846a1.26 1.26 0 0 0-.414-.657c-.21-.18-.513-.321-.909-.423-.39-.102-.915-.153-1.575-.153v-1.584c.546-.006.999-.057 1.359-.153s.645-.228.855-.396c.216-.174.366-.381.45-.621.084-.24.126-.504.126-.792 0-.612-.171-1.077-.513-1.395-.342-.318-.798-.477-1.368-.477-.264 0-.507.039-.729.117a1.994 1.994 0 0 0-1.314 1.377c-.102.276-.237.459-.405.549-.162.09-.393.111-.693.063l-1.17-.207Z"/><path fill="#fff" d="M88.544 95.008c0 4.736-1.685 8.085-5.056 10.048C80.16 107.019 75.765 108 70.304 108h-14.72V63.648h14.08c5.077 0 9.173.896 12.288 2.688 3.115 1.75 4.672 4.63 4.672 8.64 0 2.517-.768 4.587-2.304 6.208-1.536 1.621-3.477 2.73-5.824 3.328 2.816.47 5.184 1.536 7.104 3.2 1.963 1.621 2.944 4.053 2.944 7.296Zm-12.48-18.944c0-1.75-.555-3.008-1.664-3.776-1.067-.81-2.773-1.216-5.12-1.216h-3.2v10.304h3.584c2.219 0 3.84-.405 4.864-1.216 1.024-.853 1.536-2.219 1.536-4.096Zm1.664 18.496c0-2.219-.64-3.797-1.92-4.736-1.237-.939-3.05-1.408-5.44-1.408H66.08v11.904h3.84c2.432 0 4.33-.405 5.696-1.216 1.408-.81 2.112-2.325 2.112-4.544ZM96.327 63.648h10.496V99.68h19.2l-1.024 8.32H96.327V63.648ZM88.928 136.792c0 7.211-1.536 12.907-4.608 17.088-3.03 4.139-7.403 6.208-13.12 6.208-5.76 0-10.155-2.048-13.184-6.144-3.03-4.139-4.544-9.856-4.544-17.152 0-7.211 1.515-12.885 4.544-17.024 3.072-4.181 7.467-6.272 13.184-6.272 5.76 0 10.155 2.069 13.184 6.208 3.03 4.096 4.544 9.792 4.544 17.088Zm-10.752 0c0-5.461-.555-9.429-1.664-11.904-1.067-2.475-2.837-3.712-5.312-3.712s-4.267 1.237-5.376 3.712c-1.067 2.475-1.6 6.443-1.6 11.904s.533 9.429 1.6 11.904c1.11 2.475 2.901 3.712 5.376 3.712 2.517 0 4.31-1.237 5.376-3.712 1.067-2.475 1.6-6.443 1.6-11.904ZM111.239 160.088c-6.315 0-11.136-1.984-14.464-5.952-3.285-4.011-4.928-9.813-4.928-17.408 0-4.907.896-9.109 2.688-12.608 1.792-3.499 4.245-6.144 7.36-7.936 3.157-1.792 6.677-2.688 10.56-2.688 3.029 0 5.653.491 7.872 1.472 2.261.939 4.331 2.283 6.208 4.032l-5.504 5.696c-1.408-1.237-2.731-2.133-3.968-2.688-1.195-.555-2.56-.832-4.096-.832-3.2 0-5.717 1.28-7.552 3.84-1.835 2.517-2.752 6.443-2.752 11.776 0 5.717.683 9.749 2.048 12.096 1.365 2.347 3.563 3.52 6.592 3.52 2.005 0 3.84-.448 5.504-1.344v-10.176h-5.568l-1.024-7.296h16.512v22.016c-4.864 2.987-10.027 4.48-15.488 4.48Z"/></svg>