<svg xmlns="http://www.w3.org/2000/svg" viewBox="0 0 180 224" fill="none"><path stroke="#F5F5F5" stroke-width="5" d="M2.5 2.5h175v219H2.5z"/><path fill="#E8A920" d="M151.829 189.93c.24 0 .429.069.567.207a.685.685 0 0 1 .216.531V192h-8.928v-.738a1.252 1.252 0 0 1 .396-.918l3.951-3.96c.33-.336.624-.657.882-.963.264-.306.483-.609.657-.909.174-.3.306-.603.396-.909.096-.312.144-.639.144-.981 0-.312-.045-.585-.135-.819a1.607 1.607 0 0 0-.387-.603 1.493 1.493 0 0 0-.594-.36 2.228 2.228 0 0 0-.774-.126c-.264 0-.51.039-.738.117a1.88 1.88 0 0 0-.594.315 1.922 1.922 0 0 0-.441.468c-.12.18-.21.378-.27.594-.102.276-.234.459-.396.549-.162.09-.396.111-.702.063l-1.17-.207c.09-.624.264-1.17.522-1.638.258-.474.579-.867.963-1.179.39-.318.834-.555 1.332-.711a5.264 5.264 0 0 1 1.62-.243c.6 0 1.149.09 1.647.27.498.174.924.423 1.278.747s.63.714.828 1.17c.198.456.297.963.297 1.521 0 .48-.072.924-.216 1.332a5.262 5.262 0 0 1-.567 1.17 7.61 7.61 0 0 1-.828 1.08c-.318.348-.651.702-.999 1.062l-2.934 2.997c.282-.084.561-.147.837-.189.282-.048.549-.072.801-.072h3.339Zm11.602-4.437c0 1.134-.123 2.121-.369 2.961-.24.834-.576 1.524-1.008 2.07a4.071 4.071 0 0 1-1.521 1.224 4.521 4.521 0 0 1-1.89.396 4.521 4.521 0 0 1-1.89-.396 4.112 4.112 0 0 1-1.503-1.224c-.426-.546-.759-1.236-.999-2.07-.24-.84-.36-1.827-.36-2.961 0-1.14.12-2.127.36-2.961.24-.834.573-1.524.999-2.07a4.027 4.027 0 0 1 1.503-1.215 4.436 4.436 0 0 1 1.89-.405c.678 0 1.308.135 1.89.405a3.989 3.989 0 0 1 1.521 1.215c.432.546.768 1.236 1.008 2.07.246.834.369 1.821.369 2.961Zm-2.295 0c0-.942-.069-1.722-.207-2.34-.138-.618-.324-1.11-.558-1.476-.228-.366-.492-.621-.792-.765a2.05 2.05 0 0 0-1.863 0c-.294.144-.555.399-.783.765-.228.366-.411.858-.549 1.476-.132.618-.198 1.398-.198 2.34s.066 1.722.198 2.34c.138.618.321 1.11.549 1.476.228.366.489.624.783.774a2.12 2.12 0 0 0 1.863 0c.3-.15.564-.408.792-.774.234-.366.42-.858.558-1.476.138-.618.207-1.398.207-2.34Zm-9.307 19.437c.24 0 .429.069.567.207a.685.685 0 0 1 .216.531V207h-8.928v-.738a1.252 1.252 0 0 1 .396-.918l3.951-3.96c.33-.336.624-.657.882-.963.264-.306.483-.609.657-.909.174-.3.306-.603.396-.909.096-.312.144-.639.144-.981 0-.312-.045-.585-.135-.819a1.607 1.607 0 0 0-.387-.603 1.493 1.493 0 0 0-.594-.36 2.228 2.228 0 0 0-.774-.126c-.264 0-.51.039-.738.117a1.88 1.88 0 0 0-.594.315 1.922 1.922 0 0 0-.441.468c-.12.18-.21.378-.27.594-.102.276-.234.459-.396.549-.162.09-.396.111-.702.063l-1.17-.207c.09-.624.264-1.17.522-1.638.258-.474.579-.867.963-1.179.39-.318.834-.555 1.332-.711a5.264 5.264 0 0 1 1.62-.243c.6 0 1.149.09 1.647.27.498.174.924.423 1.278.747s.63.714.828 1.17c.198.456.297.963.297 1.521 0 .48-.072.924-.216 1.332a5.262 5.262 0 0 1-.567 1.17 7.61 7.61 0 0 1-.828 1.08c-.318.348-.651.702-.999 1.062l-2.934 2.997c.282-.084.561-.147.837-.189.282-.048.549-.072.801-.072h3.339Zm2.584-7.317c.09-.624.264-1.17.522-1.638.258-.474.579-.867.963-1.179.39-.318.834-.555 1.332-.711a5.264 5.264 0 0 1 1.62-.243c.6 0 1.14.087 1.62.261.486.168.9.405 1.242.711.342.3.603.654.783 1.062.186.408.279.849.279 1.323 0 .414-.048.78-.144 1.098a2.365 2.365 0 0 1-1.044 1.413 4.033 4.033 0 0 1-.873.405c.78.246 1.362.621 1.746 1.125.384.504.576 1.137.576 1.899 0 .648-.12 1.221-.36 1.719a3.74 3.74 0 0 1-.972 1.26 4.272 4.272 0 0 1-1.422.765 5.457 5.457 0 0 1-1.701.261c-.654 0-1.224-.075-1.71-.225a3.713 3.713 0 0 1-1.269-.666 4.022 4.022 0 0 1-.918-1.08 7.288 7.288 0 0 1-.648-1.476l.981-.405c.258-.108.498-.135.72-.081a.69.69 0 0 1 .495.36c.108.21.225.417.351.621.132.204.288.387.468.549.18.156.39.285.63.387.246.096.537.144.873.144.378 0 .708-.06.99-.18.282-.126.516-.288.702-.486.192-.198.333-.417.423-.657.096-.246.144-.492.144-.738 0-.312-.033-.594-.099-.846a1.26 1.26 0 0 0-.414-.657c-.21-.18-.513-.321-.909-.423-.39-.102-.915-.153-1.575-.153v-1.584c.546-.006.999-.057 1.359-.153s.645-.228.855-.396c.216-.174.366-.381.45-.621.084-.24.126-.504.126-.792 0-.612-.171-1.077-.513-1.395-.342-.318-.798-.477-1.368-.477-.264 0-.507.039-.729.117a1.994 1.994 0 0 0-1.314 1.377c-.102.276-.237.459-.405.549-.162.09-.393.111-.693.063l-1.17-.207Z"/><path fill="#fff" d="M87.904 77.152c0 2.987-.81 5.504-2.432 7.552-1.579 2.005-3.712 3.541-6.4 4.608L90.656 108H78.752l-9.6-16.96h-2.944V108H55.712V63.648h13.952c6.101 0 10.667 1.11 13.696 3.328 3.03 2.219 4.544 5.61 4.544 10.176Zm-10.816 0c0-2.133-.619-3.69-1.856-4.672-1.195-.981-3.05-1.472-5.568-1.472h-3.456v12.8h3.904c2.304 0 4.032-.533 5.184-1.6 1.195-1.067 1.792-2.752 1.792-5.056Zm29.735 4.672h15.36v7.296h-15.36v11.328h18.496V108H96.327V63.648h28.992l-1.088 7.488h-17.408v10.688ZM64.608 149.4l-2.304 9.6H51.296l13.568-44.352H77.6L91.168 159H79.904l-2.304-9.6H64.608Zm11.264-7.552-4.8-19.648-4.8 19.648h9.6Zm51.239-5.248c0 14.933-7.147 22.4-21.44 22.4H93.703v-44.352h11.2c6.699 0 12.075 1.579 16.128 4.736 4.053 3.115 6.08 8.853 6.08 17.216Zm-10.816 0c0-5.504-.853-9.259-2.56-11.264-1.707-2.048-4.139-3.072-7.296-3.072h-2.24v29.12h2.24c3.2 0 5.632-1.088 7.296-3.264 1.707-2.219 2.56-6.059 2.56-11.52Z"/></svg>